<svg width="598" height="989" viewBox="0 0 598 989" fill="none" xmlns="http://www.w3.org/2000/svg">
<g opacity="0.5" clip-path="url(#clip0_114_5011)">
<g opacity="0.2">
<path d="M121.741 195.512C116.91 204.634 112.222 214.175 108.376 224.129C89.8238 271.099 84.752 326.083 106.806 390.733C108.02 394.29 109.162 397.637 110.584 401.123C116.422 416.182 123.592 431.721 132.374 447.878C135.291 455.058 138.07 462.518 140.568 469.841C168.474 551.647 167.44 634.217 195.704 717.07C196.917 720.626 198.059 723.974 199.482 727.459C203.607 737.497 208.844 746.688 214.639 755.456C264.278 815.367 299.323 918.095 361.622 938.418C408.093 954.798 442.532 920.16 489.109 951.919C497.671 956.473 506.095 961.307 514.657 965.86C539.995 979.873 565.186 992.768 587.931 995.753C597.167 996.807 606.114 996.324 614.484 993.469C635.105 982.697 653.177 967.189 668.873 941.981C675.327 934.875 681.918 927.488 687.947 919.825C710.704 904.354 725.563 879.432 735.704 849.579C739.132 839.767 742.065 829.19 744.365 818.129C749.662 704.909 812.025 573.389 772.908 458.036C771.338 453.433 769.558 448.901 767.708 444.161C762.731 432.311 756.637 420.61 749.006 409.198C689.762 335.513 671.567 222.599 617.225 140.001C594.129 106.538 568.593 74.1403 537.946 50.7275C528.87 42.6122 519.661 35.4766 509.971 29.6727C469.816 6.4668 435.168 41.1766 392.759 25.7466C383.313 24.7646 373.872 24.4818 364.502 24.4081C358.7 24.519 352.897 24.6299 346.957 25.0213L344.236 25.9494C344.726 26.0158 345.287 26.2915 345.987 26.2866C352.136 25.8237 358.148 25.6414 364.231 25.6684C373.32 25.6042 382.833 26.0963 392.207 26.869C435.524 42.2227 470.035 7.79362 509.139 30.6573C518.619 36.5327 528.037 43.5969 536.833 51.5743C567.409 74.7779 592.945 107.175 615.97 140.429C669.96 222.68 688.363 335.523 747.75 409.627C755.1 420.9 761.195 432.602 766.171 444.451C767.951 448.983 769.802 453.723 771.372 458.326C810.484 572.98 748.33 704.429 742.824 817.72C740.804 828.92 738.081 839.425 734.653 849.237C724.721 879.018 709.79 903.732 686.891 918.784C680.79 926.237 674.48 933.762 667.817 940.94C652.121 966.148 634.397 981.304 613.985 992.004C605.823 994.788 597.086 995.199 588.13 994.284C565.666 991.436 540.547 978.751 515.346 964.457C506.994 959.832 498.361 955.07 490.008 950.445C442.589 918.272 407.94 952.982 362.24 936.806C300.782 916.896 265.6 814.448 215.889 754.328C210.167 745.77 205.209 736.717 201.084 726.679C199.871 723.122 198.52 719.846 197.306 716.289C169.185 633.855 170.149 551.076 142.17 469.061C139.672 461.738 136.894 454.278 133.906 446.888C125.123 430.731 117.954 415.192 112.187 400.342C110.764 396.857 109.551 393.3 108.409 389.953C86.4975 325.721 91.4314 271.018 110.055 224.257C113.901 214.303 118.38 204.833 123.42 195.64C137.359 148.842 157.577 110.179 182.966 81.1977L180.664 81.9829C155.137 111.245 135.547 149.694 121.741 195.512Z" fill="#B14101"/>
<path d="M125.593 236.941C107.607 284.886 104.581 342.442 127.991 411.067C128.49 412.532 129.061 414.205 129.561 415.67C135.052 431.081 141.875 446.972 150.1 463.553C167.809 536.692 180.466 607.351 203.805 675.766C207.801 687.483 212.217 699.057 216.913 710.768L217.122 710.697L216.913 710.768C223.887 718.199 230.86 725.63 237.977 733.48C286.297 784.731 304.492 897.646 367.531 903.702C416.169 910 461.542 899.193 511.383 937.78C520.092 943.451 528.593 949.194 537.369 954.375C546.007 959.837 554.782 965.018 563.554 969.5C571.197 972.732 578.408 974.009 585.047 973.613C588.962 973.445 592.871 972.579 596.429 971.365C598.94 970.509 601.589 969.372 603.957 968.096C652.37 931.961 671.927 858.489 696.497 792.181C700.757 781.385 704.946 770.38 709.558 759.931C751.259 683.575 755.047 564.564 717.719 455.14C713.579 443.005 709.021 431.013 703.835 419.235C698.987 405.707 693.72 392.322 688.172 378.798C682.647 358.494 676.418 337.495 669.281 316.573C639.304 228.699 594.997 141.277 533.426 95.0122C523.651 86.9019 513.743 79.7712 503.497 74.3906C482.935 63.4203 461.222 57.9809 438.583 60.0982C428.709 57.861 418.906 55.8329 409.179 54.7132C401.831 53.7165 394.416 53.2095 387.143 53.1211C379.8 52.8234 372.67 53.1533 365.541 53.4833C326.211 48.4479 286.787 49.9847 251.84 61.9062C197.641 80.3954 154.176 124.186 138.045 207.701C133.428 217.451 129.23 227.058 125.593 236.941ZM251.493 62.2582C286.231 50.4081 325.655 48.8713 364.984 53.9067C372.042 53.3675 379.453 53.1753 386.587 53.5444C393.859 53.6329 401.136 54.4204 408.413 55.2079C418.211 56.5369 428.152 58.2844 437.817 60.593C460.456 58.4757 482.098 63.7059 502.66 74.6762C512.977 80.2659 522.814 87.1874 532.589 95.2978C594.089 141.353 638.396 228.776 668.373 316.649C675.51 337.572 681.739 358.57 687.264 378.875C693.23 392.255 698.568 405.85 703.345 419.169C708.531 430.947 713.09 442.939 717.229 455.074C754.557 564.497 750.698 683.3 709.135 759.375C704.594 770.033 700.334 780.829 696.217 792.043C671.646 858.351 652.09 931.823 603.815 967.678C601.446 968.953 598.797 970.09 596.286 970.947C592.729 972.161 589.028 972.956 584.905 973.194C578.194 973.382 571.264 972.242 563.62 969.01C554.778 964.319 546.073 959.347 537.435 953.885C528.797 948.423 520.088 942.752 511.45 937.291C461.328 898.565 415.817 909.653 367.389 903.283C304.839 897.294 286.435 784.451 238.115 733.199C231.207 725.278 224.024 717.919 217.26 710.416C212.635 698.914 208.149 687.131 204.152 675.414C180.813 606.999 168.365 536.269 150.448 463.2C142.222 446.62 135.399 430.729 129.908 415.318C129.409 413.854 128.838 412.18 128.338 410.715C104.928 342.09 108.025 284.743 126.011 236.798C129.648 226.915 133.847 217.308 137.974 207.492C154.247 124.395 197.503 80.676 251.493 62.2582Z" fill="#B14101"/>
<path d="M434.414 415.614C433.995 415.756 433.577 415.899 433.158 416.042C424.374 419.739 422.387 425.556 424.314 431.205C424.457 431.623 424.528 431.832 424.671 432.251C431.792 440.799 443.819 460.988 455.19 457.342C456.027 457.057 457.002 456.491 457.977 455.925C461.791 451.354 461.39 444.016 459.035 437.112C454.824 424.767 443.902 412.61 434.414 415.614ZM458.617 437.254C461.043 444.368 461.092 451.358 457.697 455.787C456.931 456.281 455.956 456.848 455.119 457.133C444.447 460.774 432.282 440.866 425.161 432.317C425.089 432.108 424.947 431.69 424.804 431.271C422.948 425.831 424.798 420.295 433.373 416.67L433.301 416.46L433.373 416.67C433.791 416.527 434.21 416.384 434.628 416.241C439.023 414.742 444.003 417.014 448.436 421.107C452.798 424.991 456.547 431.187 458.617 437.254Z" fill="#B14101"/>
<path d="M130.176 383.228C137.385 404.36 148.099 426.865 163.298 450.876C166.586 461.199 170.084 471.451 173.372 481.774C174.442 484.913 175.441 487.842 176.512 490.98C190.216 531.151 200.347 570.438 204.353 613.684L204.563 613.612L204.353 613.684C204.353 613.684 204.353 613.684 204.425 613.893C213.846 641.51 226.473 667.567 241.187 692.211C246.068 700.356 251.158 708.429 256.667 716.36C314.686 835.075 405.432 914.131 493.244 903.094C501.425 903.106 509.248 902.072 516.787 900.201C520.278 899.478 523.835 898.264 527.183 897.122C538.693 893.196 549.769 887.315 560.279 880.46C568.63 874.808 576.767 868.529 584.828 861.341C590.031 855.362 595.514 849.521 601.068 843.889C629.877 813.974 664.175 789.194 686.971 749.185C691.459 741.114 695.525 732.486 699.024 722.884C717.096 647.115 720.361 563.55 701.566 474.899C699.034 462.683 696.012 450.4 692.5 438.051C689.702 427.794 686.486 417.68 683.06 407.637C682.346 405.545 681.632 403.453 680.919 401.361C677.759 389.359 674.18 377.499 670.535 366.13C643.49 287.533 600.026 210.801 548.447 153.42C540.626 144.877 532.321 136.966 524.02 129.754C499.052 108.608 471.83 95.2376 443.022 95.0216C432.938 92.8557 422.65 91.4602 412.439 90.973C405.514 90.5325 398.731 90.5106 392.092 90.9071C385.381 91.0943 378.532 91.562 371.754 92.239C331.226 85.744 291.45 86.9339 256.294 98.9268C202.932 117.13 159.88 160.079 139.163 237.684C134.261 246.597 130.129 255.715 126.773 265.735C115.814 298.67 114.688 337.827 130.176 383.228ZM140 237.399C160.717 159.793 203.631 117.125 256.784 98.9932C291.94 87.0002 331.506 85.8819 372.035 92.3769C378.812 91.6999 385.661 91.232 392.582 90.9734C399.293 90.7862 406.075 90.8083 412.929 91.0395C423.14 91.5267 433.219 92.9936 443.512 95.0881C472.32 95.3041 499.261 108.536 524.229 129.682C532.459 136.685 540.764 144.596 548.584 153.14C600.093 210.311 643.556 287.044 670.602 365.64C674.247 377.009 677.616 388.94 681.056 401.08C681.77 403.172 682.484 405.264 683.198 407.357C686.695 417.609 689.912 427.723 692.638 437.77C696.079 449.91 699.101 462.193 701.633 474.409C720.428 563.061 717.163 646.625 699.09 722.394C695.591 731.996 691.526 740.624 687.037 748.695C664.451 788.633 630.153 813.413 601.344 843.328C595.58 849.031 590.097 854.872 585.104 860.78C576.972 867.758 568.906 874.247 560.484 879.689C549.836 886.825 538.897 892.425 527.388 896.351C524.039 897.494 520.411 898.498 516.991 899.431C509.453 901.302 501.558 902.127 493.448 902.324C405.845 913.289 315.38 834.371 257.224 715.937C251.924 707.935 246.625 699.932 241.672 691.578C226.82 667.215 214.402 641.087 204.981 613.469C200.975 570.224 190.843 530.937 177.14 490.766C176.069 487.628 175.07 484.699 173.999 481.56C170.502 471.308 167.214 460.985 163.926 450.662C148.936 426.579 138.012 404.146 130.875 383.223C115.387 337.822 116.585 298.874 127.89 265.588C130.966 255.429 135.098 246.312 140 237.399Z" fill="#B14101"/>
<path d="M275.325 684.069C280.486 692.352 285.577 700.426 291.086 708.356C303.949 728.259 316.247 747.188 332.348 760.147C382.82 788.943 428.738 796.169 474.742 846.108C482.538 851.157 490.254 854.598 497.683 857.202C514.221 862.538 529.669 861.94 544.108 857.014C549.131 855.301 554.219 853.097 558.885 850.338C566.827 846.227 573.851 840.795 581.08 834.592C587.252 827.347 593.425 820.103 599.597 812.859C605.77 805.615 612.08 798.09 618.182 790.637C630.436 773.143 643.138 759.7 652.667 742.435C657.921 733.87 662.752 724.747 667.231 715.278C671.71 705.809 675.766 695.783 679.117 685.063C692.934 650.92 698.507 607.677 690.828 559.144C689.561 547.898 687.733 536.376 685.415 524.787C680.994 502.238 674.964 479.77 667.47 457.802C667.256 457.174 667.042 456.546 666.828 455.918C663.858 441.049 660.26 426.393 656.101 411.462C653.522 402.532 650.733 393.673 647.736 384.886C645.666 378.819 643.387 372.822 641.108 366.826C635.341 351.977 629.013 336.851 621.777 321.802C610.568 298.531 598.342 279.812 584.712 260.404C578.994 252.544 573.348 244.894 567.563 237.525C544.496 208.256 520.131 183.401 493.304 166.392C483.615 160.588 473.792 155.764 463.837 151.92C447.432 145.604 430.837 142.156 414.399 141.223C406.285 140.721 397.895 140.78 389.857 141.187C355.493 136.326 322.576 138.446 293.279 148.44C238.243 167.215 195.287 213.868 174.181 295.81C170.401 305.275 167.397 315.642 165.515 326.561C160.539 355.119 163.007 388.379 176.497 427.922C178.495 433.78 180.846 439.985 183.406 446.119C185.719 457.009 188.522 467.965 191.605 479.058C194.689 490.152 198.053 501.384 201.627 512.544C205.2 523.704 208.845 535.074 212.771 546.581L213.398 546.367L212.771 546.581C229.824 595.886 250.078 642.932 275.325 684.069ZM202.882 512.116C199.309 500.955 195.944 489.724 192.861 478.63C189.777 467.536 186.974 456.58 184.59 445.482C181.959 439.139 179.68 433.143 177.681 427.284C164.263 387.95 161.866 354.9 166.704 326.623C168.586 315.704 171.452 305.617 175.232 296.152C196.129 214.281 239.018 168.118 293.636 149.486C322.723 139.563 355.431 137.515 389.796 142.376C398.043 141.898 406.224 141.91 414.338 142.412C430.566 143.416 447.161 146.864 463.285 153.042C473.169 156.677 482.782 161.573 492.681 167.306C519.228 184.176 543.521 208.822 566.588 238.091C572.373 245.46 578.019 253.111 583.666 260.761C597.295 280.169 609.312 298.96 620.659 321.949C627.895 336.999 634.361 351.844 639.99 366.974C642.269 372.97 644.339 379.038 646.409 385.105C649.406 393.892 652.195 402.751 654.774 411.681C658.933 426.612 662.531 441.268 665.501 456.138C665.715 456.765 666 457.602 666.214 458.23C673.637 479.989 679.738 502.666 684.088 525.006C686.406 536.595 688.234 548.117 689.501 559.363C697.108 607.687 691.673 650.649 677.785 684.583C674.362 695.094 670.307 705.119 665.899 714.798C661.42 724.267 656.589 733.39 651.335 741.956C641.944 758.94 629.104 772.663 616.85 790.157C610.749 797.61 604.647 805.063 598.475 812.308C592.302 819.552 586.13 826.796 579.957 834.04C573.147 840.101 565.843 845.395 558.39 849.573C553.515 852.403 548.636 854.535 543.614 856.248C529.174 861.174 513.936 861.701 497.887 856.431C490.529 854.037 483.023 850.524 475.227 845.476C428.871 795.189 382.953 787.963 332.762 759.305C316.941 746.484 304.786 727.974 291.851 707.862C286.342 699.931 281.252 691.857 276.09 683.575C250.843 642.437 230.87 595.529 213.817 546.224C210.172 534.854 206.527 523.485 202.882 512.116Z" fill="#B14101"/>
<path d="M259.841 579.105L260.05 579.033L259.841 579.105C263.818 588.025 267.934 596.664 272.116 604.814C276.297 612.964 280.546 620.624 284.723 628.075C290.241 637.404 295.826 646.243 301.478 654.592C307.13 662.941 313.057 670.729 318.77 677.889C348.383 713.334 383.298 747.203 420.83 755.187C430.928 759.45 441.231 762.943 451.457 765.527C486.968 774.434 522.968 773.131 555.194 762.138C588.258 750.859 617.405 729.471 638.794 698.35C643.697 689.437 647.686 679.901 650.619 669.324C653.281 660.007 655.31 650.206 656.707 639.919C658.104 629.633 658.797 618.652 658.929 607.396C654.345 581.632 659.241 561.743 652.621 534.805C650.365 522.028 647.828 509.112 644.52 495.993C639.842 476.801 634.184 457.476 627.547 438.018C620.481 417.305 612.226 396.531 603.343 375.97C598.566 362.652 593.166 350.246 586.934 338.825C579.921 325.801 572.219 314.181 563.552 304.525C523 264.404 483.612 190.718 442.709 190.658C435.717 190.707 428.797 190.966 421.668 191.295C414.538 191.625 407.48 192.165 400.213 192.775C369.701 188.936 339.647 190.546 313.07 199.612C260.336 217.602 220.738 264.511 215.623 353.611C213.946 363.76 212.83 374.184 212.346 385.093C211.863 396.002 211.731 407.259 212.441 418.928C213.285 429.618 214.899 440.513 217.14 451.193C220.106 465.364 224.398 479.315 229.18 493.333C237.316 517.184 247.06 540.955 255.125 564.597C256.767 569.409 258.409 574.221 259.841 579.105ZM229.807 493.119C225.025 479.101 220.733 465.149 217.768 450.979C215.527 440.299 213.913 429.404 213.069 418.714C212.359 407.044 212.49 395.788 212.974 384.879C213.458 373.97 214.574 363.545 216.251 353.397C221.437 264.506 260.688 217.949 313.213 200.031C339.79 190.965 369.563 189.217 400.075 193.056C407.342 192.445 414.4 191.906 421.53 191.576C428.659 191.246 435.58 190.988 442.571 190.938C482.704 190.795 522.438 264.128 563.062 304.458C571.729 314.115 579.431 325.735 586.444 338.758C592.467 350.251 597.867 362.656 602.853 375.904C611.945 396.393 619.991 417.239 626.985 437.743C633.623 457.201 639.281 476.525 643.959 495.717C647.057 508.908 649.803 521.752 652.06 534.529C658.608 561.258 653.921 581.076 658.296 606.911C658.164 618.167 657.472 629.148 656.075 639.434C654.678 649.721 652.648 659.523 650.195 668.768C647.262 679.345 643.273 688.881 638.58 697.722C617.329 728.562 588.181 749.951 555.327 761.158C523.101 772.152 487.31 773.383 451.871 764.685C441.644 762.101 431.413 758.817 421.244 754.345C383.783 746.57 349.077 712.63 319.464 677.185C313.68 669.816 307.824 662.237 302.172 653.888C296.521 645.539 290.936 636.7 285.417 627.371C281.031 619.991 276.992 612.26 272.81 604.11C268.628 595.96 264.584 587.53 260.744 578.329C259.312 573.446 257.671 568.634 256.029 563.821C247.688 540.74 237.944 516.97 229.807 493.119Z" fill="#B14101"/>
<path d="M275.82 564.312C282.899 576.846 290.815 589.094 298.94 601.27C322.841 639.831 351.316 672.627 381.193 695.836C391.106 703.665 401.29 710.235 411.327 715.687C447.858 740.596 479.505 736.807 510.058 726.385C528.263 720.174 545.893 711.591 564.099 705.38C574.562 701.811 585.03 698.94 595.651 697.887C595.86 697.815 595.86 697.815 595.86 697.815L596.069 697.744C603.394 695.245 610.157 692.471 616.353 688.722C635.362 677.333 647.811 657.67 647.13 620.064C645.428 586.31 637.575 553.019 626.298 519.962C607.384 464.518 578.549 410.122 551.27 358.233C542.768 342.214 533.511 328.088 524.053 315.431C498.569 280.447 469.672 257.371 440.358 244.715C430.54 240.59 420.799 237.373 411.068 235.554C385.288 228.466 357.669 228.311 333.185 236.663C297.61 248.799 268.521 278.576 259.791 330.37C257.762 340.172 256.013 350.111 254.754 360.117C253.286 370.194 252.027 380.2 250.63 390.487C249.609 404.615 249.15 419.02 249.671 433.557C250.014 472.914 258.705 516.196 271.98 555.111C273.051 558.25 274.05 561.179 275.121 564.317L275.748 564.103L275.82 564.312ZM250.441 433.762C250.13 419.153 250.38 404.82 251.4 390.691C252.869 380.614 254.056 370.398 255.596 360.53C257.064 350.453 258.532 340.376 260.633 330.784C269.434 279.199 298.524 249.422 333.68 237.429C357.954 229.148 385.293 229.165 411.282 236.182C421.013 238 430.755 241.217 440.572 245.343C469.886 257.999 498.783 281.074 524.196 315.849C533.653 328.506 542.702 342.704 551.412 358.651C578.621 410.332 607.456 464.727 626.37 520.171C637.647 553.228 645.29 586.591 647.202 620.273C648.092 657.808 635.5 677.052 616.7 688.37C610.504 692.119 603.741 694.893 596.417 697.392C596.207 697.463 596.207 697.463 595.998 697.535C585.168 698.66 574.7 701.53 564.237 705.099C546.031 711.31 528.121 719.756 510.124 725.895C479.572 736.317 448.134 740.035 411.674 715.335C401.637 709.883 391.454 703.313 381.54 695.484C351.663 672.275 323.117 639.27 299.287 600.918C290.953 588.813 283.175 576.284 275.958 564.031C274.958 561.102 273.679 558.035 272.679 555.106C259.475 516.4 250.784 473.118 250.441 433.762Z" fill="#B14101"/>
<path d="M321.553 534.697L320.996 535.12C353.146 583.48 381.935 651.438 425.966 668.884C433.257 671.769 440.187 672.908 446.689 672.792C453.191 672.677 459.545 671.443 465.756 669.791C470.769 666.68 475.786 664.268 481.018 662.483C511.57 652.061 545.555 662.657 581.588 666.247C585.717 666.707 589.56 666.331 592.908 665.188C595.838 664.189 598.553 662.562 601.126 660.516C616.415 647.126 619.821 613.965 609.258 583C604.833 570.028 600.336 556.847 595.63 543.737C591.134 530.556 586.219 517.518 581.304 504.48C579.657 498.969 577.939 493.248 576.084 487.808C541.682 386.963 470.074 294.839 404.127 283.001C394.115 281.044 384.327 281.113 374.691 282.999C371.619 283.58 368.827 284.299 365.897 285.298C331.16 297.148 309.819 335.26 299.101 382.594C296.315 394.288 294.514 406.815 293.484 419.545C291.776 445.354 294.062 472.602 302.913 498.546C307.195 511.099 313.014 523.362 320.578 535.263L321.553 534.697ZM295.092 419.464C295.913 406.805 297.994 394.416 300.57 382.793C311.151 335.74 332.353 297.909 366.535 286.482C369.255 285.554 372.047 284.835 375.119 284.254C384.546 282.44 394.334 282.371 404.066 284.19C469.241 295.824 540.707 387.529 575.037 488.165C576.893 493.605 578.82 499.254 580.467 504.765C585.382 517.804 590.087 530.913 594.793 544.023C599.29 557.204 603.786 570.385 608.211 583.357C618.632 613.903 615.155 646.855 600.351 659.613C597.987 661.587 595.481 663.143 592.76 664.071C589.622 665.142 585.988 665.447 582.14 665.125C546.387 661.672 512.122 650.938 481.151 661.503C475.919 663.288 470.902 665.7 465.68 668.883C459.749 670.673 453.605 671.835 447.031 671.741C440.53 671.857 433.809 670.646 426.589 667.971C383.4 650.938 354.401 583.052 322.252 534.692C314.759 523 308.941 510.737 304.73 498.393C295.599 472.312 293.103 445.135 295.092 419.464Z" fill="#B14101"/>
<path d="M337.814 500.885C338.818 504.513 340.032 508.07 341.245 511.627C379.858 624.816 494.554 659.031 557.751 637.472C565.95 630.004 571.623 621.295 575.541 611.55C579.458 601.805 581.549 590.815 581.819 579.278C582.298 567.669 580.955 555.515 578.489 542.809C575.467 530.526 571.675 518.039 567.392 505.486C540.913 427.864 493.04 350.533 438.217 329.528C419.358 322.181 400.537 320.427 383.782 324.04C380.99 324.759 378.198 325.478 375.478 326.406C361.875 331.046 350.048 339.519 340.414 351.681C328.839 366.374 320.937 386.353 317.968 411.891C314.956 431.137 319.781 451.447 326.49 471.114C330.197 481.294 334.113 491.404 337.814 500.885ZM318.667 411.886C321.498 386.629 329.61 366.578 340.975 351.957C350.4 339.866 362.299 331.602 375.692 327.034C378.412 326.106 380.995 325.458 383.786 324.739C400.542 321.126 419.082 322.742 437.941 330.089C492.203 350.819 540.356 428.287 566.764 505.7C571.047 518.253 574.839 530.74 577.79 542.814C580.255 555.52 581.598 567.674 581.12 579.283C580.85 590.819 578.688 601.601 574.77 611.346C570.852 621.091 565.179 629.8 557.119 636.987C525.938 647.624 481.658 644.511 440.266 624.53C399.084 604.477 360.863 567.765 341.664 511.484C340.45 507.927 339.237 504.37 338.233 500.742L338.024 500.814L338.233 500.742C334.74 491.189 330.615 481.152 327.118 470.9C320.618 451.161 315.583 430.923 318.667 411.886Z" fill="#B14101"/>
<path d="M524.935 603.588C527.865 602.589 530.514 601.452 533.092 600.105C557.96 586.717 554.783 552.064 542.073 514.124C530.582 480.439 511.172 444.083 496.238 418.113C468.878 364.616 423.655 326.555 386.754 338.91C381.522 340.695 376.438 343.597 371.64 347.336C344.461 370.388 333.866 415.344 347.99 465.649C349.574 472.349 351.578 478.906 353.719 485.183C384.914 577.312 472.41 621.506 524.935 603.588ZM354.209 485.249C352.068 478.973 350.064 472.415 348.48 465.715C334.218 415.691 345.094 370.873 371.925 348.173C376.652 344.224 381.598 341.603 386.83 339.818C423.242 327.397 468.393 365.248 495.473 418.607L495.682 418.536L495.473 418.607C510.406 444.578 529.745 480.724 541.236 514.409C554.084 552.069 556.909 586.375 532.668 599.549C530.091 600.895 527.232 602.104 524.512 603.032C498.354 611.955 463.628 605.349 431.535 585.233C399.371 564.906 369.839 531.069 354.209 485.249Z" fill="#B14101"/>
<path d="M506.039 570.797C510.224 569.369 514.124 567.105 517.947 563.932C535.324 549.128 531.234 513.853 519.243 478.704C512.32 458.409 502.881 438.272 493.047 421.773C466.496 374.073 427.862 348.479 395.217 359.616C390.404 361.257 385.668 363.808 381.145 366.985C367.183 380.157 351.247 401.242 359.455 425.303C360.312 427.814 361.449 430.462 363.005 432.968C394.404 494.196 458.674 586.721 506.039 570.797ZM360.155 425.298C352.089 401.656 367.815 380.642 381.568 367.542C386.02 364.155 390.618 361.885 395.432 360.243C427.658 349.25 465.94 374.496 492.491 422.196L492.7 422.125L492.491 422.196C502.253 438.486 511.763 458.832 518.615 478.918C530.606 514.067 534.416 549.204 517.524 563.375C513.7 566.548 509.729 568.604 505.753 569.96C459.159 586.089 394.751 493.844 363.423 432.825C362.148 430.457 361.011 427.809 360.155 425.298Z" fill="#B14101"/>
<path d="M488.148 501.223C497.531 493.117 496.914 474.875 491.276 458.347C490.343 454.928 489.411 451.509 488.269 448.161C478.205 418.661 458.454 393.633 435.779 380.58C427.298 377.634 419.817 377.617 413.329 379.83C404.122 382.971 396.413 390.506 389.913 400.898C385.791 411.414 385.755 426.374 390.537 440.392C393.106 447.924 397.003 455.237 402.568 461.28C422.425 491.41 454.395 513.905 479.787 505.477C482.507 504.549 485.294 503.131 488.148 501.223ZM403.125 460.857L402.778 461.209L403.125 460.857C397.768 454.743 393.872 447.43 391.374 440.107C386.663 426.298 386.771 411.547 390.755 401.312C397.327 391.128 404.688 383.946 413.686 380.876C420.173 378.663 427.236 378.823 435.437 381.631C457.759 394.337 477.439 419.156 487.431 448.447C488.573 451.794 489.506 455.213 490.439 458.632C496.006 474.952 496.341 493.056 487.582 500.248C484.937 502.085 482.15 503.502 479.43 504.43C454.528 512.925 422.91 490.778 403.125 460.857Z" fill="#B14101"/>
<path d="M468.783 461.581C470.342 454.51 469.294 444.59 465.868 434.547C461.942 423.04 455.22 411.552 446.572 404.693C437.573 397.486 428.184 394.616 421.278 396.971C415.837 398.828 411.957 403.888 411.107 412.353C411.241 421.65 415.661 433.923 418.883 444.736L419.092 444.665L418.883 444.736C430.661 459.404 448.119 476.338 459.909 472.55C463.467 471.336 466.657 467.679 468.783 461.581ZM459.766 472.131C448.466 475.986 431.08 459.261 419.301 444.593C415.799 433.642 411.66 421.508 411.387 412.491C412.309 404.235 416.051 399.455 421.283 397.671C427.979 395.386 437.088 398.118 446.087 405.325C454.526 412.256 461.457 423.673 465.312 434.971C468.666 444.804 469.923 454.652 468.293 461.515C466.168 467.612 463.324 470.918 459.766 472.131Z" fill="#B14101"/>
</g>
</g>
<defs>
<clipPath id="clip0_114_5011">
<rect width="920" height="989" fill="white"/>
</clipPath>
</defs>
</svg>
